<svg width="80" height="80" viewBox="0 0 80 80" fill="none" xmlns="http://www.w3.org/2000/svg">
<path fill-rule="evenodd" clip-rule="evenodd" d="M40 80C62.0914 80 80 62.0913 80 40C80 17.9087 62.0914 0 40 0C17.9086 0 0 17.9087 0 40C0 62.0913 17.9086 80 40 80ZM42.8284 31.1714L40 28.3433L37.1716 31.1714L25.1716 43.1714C23.6095 44.7339 23.6095 47.2661 25.1716 48.8286C26.7336 50.3906 29.2664 50.3906 30.8284 48.8286L40 39.6567L49.1716 48.8286C50.7336 50.3906 53.2664 50.3906 54.8284 48.8286C56.3905 47.2661 56.3905 44.7339 54.8284 43.1714L42.8284 31.1714Z" fill="#C4DBC0"/>
</svg>
